<svg class="img-fluid" id="outputsvg" xmlns="http://www.w3.org/2000/svg" style="transform: matrix(1.32067, 0, 0, 1.32067, 0, 0); transform-origin: 50% 50%; cursor: move; max-height: 319.84px;" width="2048" height="2048" viewBox="0 0 20480 20480"><g id="l5uAHeTVMHdLprPB5lzrRTq" fill="rgb(242,19,65)" style="transform: none;"><g style="transform: none;"><path id="pYfCu2JcP" d="M7016 17049 c-1775 -983 -3229 -1789 -3231 -1791 -7 -7 -1166 -10070 -1161 -10076 3 -3 1719 -616 3813 -1362 l3807 -1358 110 40 c61 21 1772 631 3801 1355 2030 723 3694 1319 3699 1323 9 9 -1149 10069 -1161 10081 -4 4 -1458 810 -3229 1792 l-3221 1784 -3227 -1788z m683 -3316 l476 -1193 2056 0 2057 0 478 1195 479 1195 842 0 c464 0 843 -3 843 -6 0 -14 -4684 -10544 -4690 -10544 -4 0 -1063 2370 -2355 5268 -1292 2897 -2350 5270 -2352 5275 -3 4 377 6 842 5 l847 -3 477 -1192z"/><path id="p1DV0hISam" d="M8820 11088 c0 -21 259 -656 692 -1700 l693 -1668 35 0 35 0 693 1668 c437 1052 692 1679 692 1700 l0 32 -1420 0 -1420 0 0 -32z"/></g></g><g id="l45NW0JMqE7TbmYTulHOg8A" fill="rgb(18,18,18)" style="transform: none;"><g style="transform: none;"><path id="pdtdOHx26" d="M5814 14193 c2736 -6139 4422 -9913 4426 -9913 4 0 4726 10612 4748 10671 2 5 -376 9 -885 9 l-888 0 -479 -1195 -478 -1195 -2027 0 -2026 0 -476 1193 -477 1192 -890 3 -890 2 342 -767z m5814 -3112 c-20 -58 -1384 -3331 -1388 -3331 -4 0 -1364 3263 -1388 3331 -2 5 550 9 1388 9 870 0 1390 -4 1388 -9z"/></g></g></svg>