<svg class="img-fluid" id="outputsvg" xmlns="http://www.w3.org/2000/svg" style="transform: none; transform-origin: 50% 50%; cursor: move; max-height: 319.84px; transition: none 0s ease 0s;" width="450" height="450" viewBox="0 0 4500 4500"><g id="l3jPOboMsmbrAZpU9kSyYC9" fill="rgb(242,19,65)" style="transform: none;"><g><path id="p19NXsXXwi" d="M2135 4365 c-253 -47 -484 -136 -663 -257 -279 -187 -753 -613 -960 -861 -219 -261 -350 -527 -383 -772 -38 -286 70 -682 267 -981 145 -220 522 -653 750 -860 358 -325 636 -463 984 -489 72 -6 109 -2 235 24 258 52 458 131 645 255 261 175 717 583 938 841 210 245 342 493 386 725 29 149 30 236 7 360 -51 266 -114 440 -229 630 -142 235 -552 707 -822 948 -282 251 -565 402 -827 441 -93 14 -240 12 -328 -4z m-210 -1551 c61 -32 65 -45 65 -256 l0 -188 -50 0 -49 0 -3 128 -3 127 -118 3 c-69 1 -125 -2 -137 -8 -18 -10 -20 -21 -20 -130 l0 -120 -50 0 -50 0 0 121 c0 185 8 192 225 199 160 5 174 11 141 55 -13 18 -28 20 -188 22 l-173 3 -3 36 -3 36 188 -4 c167 -3 192 -5 228 -24z m1185 -53 c0 -5 -19 -26 -42 -46 -38 -32 -41 -38 -27 -48 33 -25 39 -55 39 -207 l0 -152 -28 -28 c-43 -42 -97 -53 -252 -48 -145 4 -188 17 -211 60 -17 32 -15 318 2 346 28 44 74 57 213 59 l129 2 36 35 c32 32 41 36 88 36 29 0 53 -4 53 -9z m-2278 -252 l3 -191 80 177 c43 97 88 183 99 191 32 22 101 18 129 -8 14 -13 58 -97 98 -188 40 -91 75 -168 78 -172 3 -4 6 79 6 185 l0 192 50 0 50 0 3 -180 c2 -99 0 -199 -3 -223 -6 -38 -11 -46 -43 -59 -42 -18 -105 -12 -131 11 -10 9 -53 95 -96 191 -43 97 -80 173 -83 170 -3 -3 -36 -76 -73 -162 -37 -87 -78 -171 -92 -188 -22 -27 -29 -30 -81 -29 -45 0 -61 5 -79 22 -21 22 -22 31 -25 223 -2 111 -1 208 2 215 4 9 22 14 55 14 l51 0 2 -191z m1583 180 c24 -6 55 -24 70 -39 24 -25 28 -38 29 -89 1 -103 -45 -131 -216 -131 -74 0 -100 -4 -112 -16 -19 -18 -21 -85 -4 -102 8 -8 62 -12 175 -12 l163 0 0 -35 0 -35 -164 0 c-191 0 -214 3 -256 39 -39 33 -53 115 -26 156 32 49 60 58 193 65 93 4 126 9 133 20 13 20 12 67 0 91 -10 18 -23 19 -175 19 l-165 0 0 40 0 40 156 0 c85 0 175 -5 199 -11z m1175 -35 l0 -34 -165 0 c-152 0 -165 -1 -175 -19 -6 -12 -10 -93 -10 -195 l0 -176 -50 0 -50 0 0 184 c0 102 4 195 9 209 5 13 22 32 38 43 24 16 52 20 208 24 99 3 183 4 188 2 4 -2 7 -19 7 -38z m127 30 c5 -15 7 -15 15 0 14 25 28 9 28 -30 0 -38 -16 -46 -28 -13 l-8 20 -18 -20 c-27 -29 -36 -26 -26 9 5 17 6 30 4 30 -3 0 -2 5 1 10 9 15 25 12 32 -6z m-69 -11 c0 -10 3 -26 7 -35 6 -15 2 -18 -19 -18 -14 0 -26 5 -26 10 0 6 5 10 10 10 6 0 10 11 10 25 0 14 4 25 9 25 6 0 9 -8 9 -17z m112 -312 c0 -18 -85 -104 -136 -136 -76 -49 -74 -53 41 -70 68 -10 74 -19 40 -56 -42 -43 -143 -114 -196 -137 -24 -11 -50 -26 -57 -35 -7 -8 -37 -67 -66 -130 -29 -63 -65 -135 -80 -161 -40 -69 -148 -179 -224 -229 -72 -47 -110 -62 -185 -73 -26 -3 -50 -11 -53 -16 -4 -6 -30 -21 -58 -34 -80 -37 -137 -29 -150 20 -8 32 4 61 49 121 21 27 49 81 62 122 14 40 36 89 50 110 23 34 24 41 15 88 -20 98 -22 122 -12 174 20 106 67 165 114 143 17 -8 26 -23 32 -57 l9 -47 35 53 c19 29 59 73 89 98 l54 46 -49 -65 c-27 -36 -67 -103 -89 -148 -21 -45 -43 -82 -47 -82 -15 0 -48 84 -48 123 0 84 -56 -1 -66 -101 -4 -31 -2 -73 4 -92 6 -19 15 -49 20 -66 8 -27 5 -38 -24 -84 -19 -30 -43 -84 -55 -120 -11 -37 -38 -90 -59 -117 -47 -63 -57 -91 -36 -99 20 -7 65 10 125 48 30 19 58 28 85 28 82 0 227 94 307 197 60 78 73 99 103 171 86 205 99 223 178 252 61 22 187 98 188 113 0 4 -18 7 -41 7 -22 0 -60 5 -85 11 -34 9 -44 16 -44 32 0 29 71 92 148 131 37 19 76 43 86 55 21 23 26 25 26 12z m-840 -870 c0 -20 -19 -41 -37 -41 -17 0 -16 16 3 45 17 27 34 25 34 -4z"/><path id="pe1bex2Am" d="M2706 2614 c-18 -17 -18 -15 -16 -173 1 -95 4 -117 18 -127 11 -9 52 -13 122 -14 152 0 150 -3 150 164 0 159 -6 171 -62 121 -34 -31 -44 -35 -95 -35 l-57 0 39 40 39 40 -61 0 c-43 0 -66 -5 -77 -16z"/></g></g></svg>