<svg class="img-fluid" id="outputsvg" xmlns="http://www.w3.org/2000/svg" style="transform: none; transform-origin: 50% 50%; cursor: move; max-height: 319.84px; transition: none 0s ease 0s;" width="512" height="512" viewBox="0 0 5120 5120"><g id="l6zSEQ6pGm93V5sjw8yNxRv" fill="rgb(242,19,65)" style="transform: none;"><g><path id="p18iHoCci4" d="M2200 3889 c-960 -82 -1725 -411 -2049 -883 -49 -70 -108 -204 -126 -281 -21 -88 -21 -242 0 -331 22 -99 102 -255 179 -350 571 -710 2141 -1024 3460 -693 682 171 1189 498 1372 884 55 116 75 204 75 326 0 125 -20 208 -81 334 -125 257 -376 475 -763 660 -344 165 -746 270 -1242 325 -130 15 -689 21 -825 9z m-1089 -746 l34 -178 210 -6 c303 -8 398 -39 530 -173 170 -172 231 -446 140 -626 -32 -62 -113 -134 -181 -159 -93 -35 -175 -42 -498 -39 l-309 3 -118 605 c-65 333 -124 638 -132 678 l-14 72 152 0 153 0 33 -177z m2263 160 c5 -17 66 -328 66 -337 0 -2 96 -6 213 -9 116 -3 235 -11 262 -18 269 -64 456 -326 443 -619 -7 -142 -64 -238 -177 -299 -99 -53 -172 -61 -532 -61 -175 0 -319 3 -319 6 0 3 -59 305 -130 672 -72 367 -130 670 -130 675 0 4 67 7 149 7 134 0 150 -2 155 -17z m-1071 -365 c3 -13 35 -178 72 -368 36 -190 68 -353 71 -362 5 -16 21 -18 155 -18 201 0 239 16 239 104 0 19 -27 174 -60 343 -33 169 -60 311 -60 316 0 4 69 6 152 5 l153 -3 57 -290 c75 -383 82 -434 68 -499 -33 -155 -150 -205 -486 -206 l-171 0 33 -172 c19 -95 34 -176 34 -180 0 -5 -67 -8 -149 -8 l-150 0 -10 53 c-32 158 -251 1291 -251 1298 0 5 67 9 149 9 146 0 149 0 154 -22z"/><path id="pGlxFGvXw" d="M1193 2719 c3 -13 27 -132 52 -264 25 -132 48 -248 51 -257 5 -16 20 -18 123 -18 198 0 281 25 312 94 47 103 -6 308 -101 388 -62 54 -123 69 -294 75 l-149 6 6 -24z"/><path id="pA0NbCWL3" d="M3490 2728 c0 -9 23 -131 50 -272 28 -141 50 -262 50 -268 0 -7 47 -9 159 -6 142 4 163 7 207 29 64 32 87 72 87 150 -2 126 -56 259 -127 311 -62 44 -126 59 -283 65 -123 5 -143 4 -143 -9z"/></g></g></svg>