<svg class="img-fluid" id="outputsvg" xmlns="http://www.w3.org/2000/svg" style="transform: none; transform-origin: 50% 50%; cursor: move; max-height: 319.84px;" width="2000" height="2000" viewBox="0 0 20000 20000"><g id="l1KMK6mHv6N0FtCAx7q95iv" fill="rgb(242,19,65)" style="transform: none;"><g><path id="pfOcZnb4c" d="M9705 14714 c-681 -43 -1286 -203 -1866 -494 -480 -241 -854 -513 -1249 -909 -498 -500 -837 -1025 -1087 -1686 -345 -912 -396 -1945 -142 -2894 89 -332 192 -598 364 -936 165 -324 347 -600 596 -900 107 -129 445 -467 574 -574 754 -625 1625 -995 2575 -1096 238 -25 622 -30 855 -11 621 51 1182 203 1745 473 l155 75 -60 51 c-92 79 -226 215 -276 283 -79 104 -199 324 -199 363 0 15 4 16 -112 -35 -125 -55 -125 -55 -213 -89 -309 -120 -642 -202 -1005 -247 -161 -20 -668 -17 -850 5 -761 93 -1455 392 -2047 882 -154 127 -400 377 -527 535 -214 267 -400 570 -535 874 -401 902 -440 1940 -109 2876 22 63 46 129 53 145 140 337 305 630 509 900 592 786 1479 1327 2441 1489 259 44 355 51 670 51 313 0 396 -6 655 -51 870 -148 1674 -598 2255 -1260 110 -124 117 -133 201 -246 412 -554 658 -1166 750 -1870 21 -161 29 -551 15 -738 -30 -411 -115 -782 -263 -1148 -27 -68 -48 -125 -46 -126 1 -1 30 -13 63 -26 228 -89 470 -257 601 -418 27 -34 53 -61 57 -61 4 -1 10 7 14 17 3 9 26 64 51 122 24 58 50 119 57 135 111 263 223 659 280 992 83 488 84 1057 4 1553 -212 1307 -971 2478 -2084 3214 -639 423 -1342 674 -2135 762 -128 14 -607 26 -735 18z"/><path id="pQdmDete" d="M9735 12119 c-477 -49 -926 -259 -1275 -595 -327 -316 -536 -695 -625 -1129 -182 -892 211 -1800 986 -2280 714 -443 1632 -430 2329 32 640 425 1007 1138 977 1898 -24 572 -257 1087 -677 1488 -314 301 -694 491 -1136 567 -138 24 -436 34 -579 19z"/><path id="p29ejM3mB" d="M12870 7965 c-197 -44 -361 -137 -506 -286 -96 -100 -133 -153 -184 -262 -157 -336 -116 -727 109 -1024 133 -177 320 -300 546 -359 86 -23 120 -27 240 -27 119 0 155 5 240 27 225 59 413 182 545 358 137 182 202 370 203 593 1 131 -15 232 -54 339 -112 308 -360 539 -674 627 -103 28 -364 36 -465 14z"/></g></g></svg>