<svg class="img-fluid" id="outputsvg" xmlns="http://www.w3.org/2000/svg" style="transform: none; transform-origin: 50% 50%; cursor: move; max-height: 319.84px;" width="450" height="450" viewBox="0 0 4500 4500"><g id="lNnErjbtj7DbB5EGGUAvYH" fill="rgb(242,19,65)" style="transform: none;"><g><path id="p1FLsNU69B" d="M1797 4104 c-44 -8 -113 -25 -154 -39 -285 -96 -414 -352 -441 -872 l-7 -128 -125 -6 c-199 -10 -308 -42 -444 -133 -138 -92 -186 -161 -186 -267 0 -58 27 -101 86 -135 58 -34 126 -36 261 -5 142 32 139 35 83 -62 -134 -235 -275 -581 -344 -849 -47 -181 -60 -275 -60 -443 -1 -243 22 -312 155 -450 285 -297 673 -395 1164 -293 89 18 111 19 198 9 247 -28 465 3 622 89 25 14 34 15 69 3 212 -74 530 -116 701 -94 212 28 338 83 456 201 168 167 237 386 226 724 -5 184 -28 322 -108 646 -163 660 -367 1057 -588 1141 -99 37 -241 15 -313 -48 -16 -14 -20 -13 -49 11 -114 97 -339 133 -524 86 -43 -11 -79 -19 -80 -18 -1 2 -7 95 -13 208 -13 216 -26 297 -68 420 -33 95 -47 123 -95 187 -86 115 -223 153 -422 117z m221 -105 c125 -42 227 -175 258 -335 14 -73 32 -356 37 -571 l2 -102 50 33 c132 87 304 105 474 49 71 -23 131 -78 131 -121 0 -66 -54 -101 -213 -137 -85 -19 -121 -37 -163 -83 -41 -45 -43 -60 -6 -67 15 -3 58 -15 96 -27 l69 -22 55 59 c30 33 105 119 166 190 130 150 184 188 270 188 68 0 115 -22 177 -80 160 -149 312 -512 443 -1053 107 -442 122 -700 52 -940 -124 -429 -565 -565 -1210 -373 l-88 27 -47 -26 c-25 -14 -82 -38 -126 -54 -72 -25 -97 -28 -240 -32 -116 -3 -179 0 -230 11 -63 13 -74 13 -133 -4 -137 -39 -253 -52 -435 -46 -186 5 -262 20 -403 78 -153 64 -344 221 -398 327 -98 193 -38 615 156 1102 62 155 180 393 257 516 l58 92 -24 11 c-46 21 -135 23 -243 6 -155 -25 -202 -28 -229 -13 -36 19 -45 40 -37 84 14 73 152 181 293 228 92 32 255 50 341 40 37 -4 71 -8 76 -9 5 0 26 133 47 295 52 408 69 481 131 575 102 154 399 247 586 184z"/><path id="pWG7NdZ7d" d="M1745 3891 c-142 -41 -223 -109 -263 -222 -32 -91 -97 -552 -121 -852 -11 -141 -33 -186 -107 -218 -24 -11 -44 -22 -44 -25 0 -3 18 -26 39 -52 41 -48 107 -168 235 -424 169 -339 188 -548 61 -671 -53 -52 -139 -77 -262 -77 -110 0 -107 9 -42 -124 117 -236 343 -448 569 -535 119 -46 228 -66 370 -65 107 0 137 4 211 27 146 45 249 125 338 262 60 91 105 197 131 309 19 80 42 227 36 233 -2 2 -23 -8 -47 -21 -125 -69 -308 -91 -404 -48 -65 30 -109 73 -134 133 -34 77 -61 263 -61 414 0 155 24 269 85 400 20 44 50 117 65 163 l29 82 -32 0 c-73 1 -163 70 -185 142 -6 19 -13 198 -16 418 -6 440 -15 522 -67 619 -37 71 -96 126 -148 141 -54 15 -169 11 -236 -9z"/><path id="pAGqbsqh8" d="M2554 2990 c-66 -14 -143 -58 -196 -112 -41 -42 -48 -55 -48 -89 0 -31 7 -47 29 -70 48 -48 70 -40 146 50 36 44 80 89 98 99 38 24 143 57 209 66 26 4 50 11 52 15 17 27 -209 59 -290 41z"/><path id="pVY9hSQnr" d="M3185 2925 c-22 -15 -65 -57 -95 -93 -30 -36 -98 -114 -151 -172 l-96 -106 43 -49 c53 -61 109 -171 125 -245 8 -39 9 -93 3 -190 -5 -74 -8 -238 -6 -364 4 -317 -26 -516 -108 -706 -34 -81 -108 -200 -153 -247 -17 -18 -29 -35 -26 -37 2 -2 60 -18 129 -35 487 -119 818 -15 945 298 57 140 71 366 35 578 -107 630 -322 1211 -501 1355 -52 42 -95 46 -144 13z"/><path id="pkXAeOZUW" d="M970 2836 c-36 -7 -83 -18 -105 -25 -41 -14 -175 -91 -175 -101 0 -4 33 -1 72 6 144 26 296 12 362 -31 18 -12 27 -11 62 4 49 22 52 26 63 85 6 35 5 48 -6 57 -20 17 -196 20 -273 5z"/><path id="p3yixPlco" d="M2516 2504 c-10 -32 -36 -101 -58 -153 -67 -162 -87 -228 -98 -331 -17 -152 18 -415 64 -485 22 -34 89 -65 141 -65 59 0 148 24 247 65 l87 37 0 196 c0 109 5 238 11 289 19 156 -15 272 -111 378 -56 61 -146 110 -219 120 l-46 7 -18 -58z m74 -873 c69 -49 52 -101 -33 -101 -94 0 -147 49 -99 93 42 39 85 41 132 8z"/><path id="pXIJMYF1g" d="M1073 2382 c-272 -476 -448 -1060 -404 -1340 13 -85 38 -129 118 -207 193 -191 477 -279 786 -246 147 16 150 18 79 56 -149 79 -298 212 -404 361 -70 99 -152 261 -173 343 -17 65 -17 77 17 357 10 85 9 124 -5 255 -10 85 -17 179 -17 209 0 74 24 180 55 248 45 98 11 75 -52 -36z"/><path id="p16oFtFfr0" d="M1212 2343 c-36 -88 -40 -184 -16 -390 16 -143 14 -199 -12 -377 -9 -60 -11 -103 -5 -109 18 -18 125 -20 191 -3 121 31 154 75 147 201 -8 131 -59 258 -250 623 -44 83 -44 84 -55 55z m214 -758 c30 -31 21 -57 -27 -74 -103 -36 -169 14 -98 73 41 35 91 35 125 1z"/></g></g></svg>