<svg xmlns="http://www.w3.org/2000/svg" version="1.0" width="1200.000000pt" height="453.000000pt" viewBox="0 0 1200.000000 453.000000" preserveAspectRatio="xMidYMid meet">

<g transform="translate(0.000000,453.000000) scale(0.100000,-0.100000)" fill="#f21341" stroke="none">
<path d="M3628 4273 c-27 -2 -48 -7 -48 -11 0 -4 12 -42 26 -85 l26 -79 137 7 c75 4 137 8 139 10 1 1 -9 39 -23 84 l-26 81 -92 -2 c-51 -1 -113 -3 -139 -5z" fill="#f21341"/>
<path d="M4970 4061 c0 -26 -3 -69 -6 -93 l-6 -45 48 -18 c27 -10 89 -33 138 -52 49 -18 92 -31 95 -27 3 3 8 46 9 95 l4 89 -54 24 c-45 20 -210 76 -224 76 -2 0 -4 -22 -4 -49z" fill="#f21341"/>
<path d="M2457 3939 c-59 -33 -107 -63 -107 -67 0 -4 29 -51 63 -104 l63 -98 45 28 c24 16 74 45 111 66 l67 37 -60 92 c-33 51 -64 95 -67 99 -4 4 -55 -20 -115 -53z" fill="#f21341"/>
<path d="M3631 3979 c-388 -41 -862 -243 -1276 -544 -189 -138 -311 -241 -484 -410 -416 -406 -692 -791 -966 -1350 -169 -344 -298 -691 -384 -1030 -40 -159 -81 -367 -81 -412 l0 -23 1148 0 c632 0 1151 2 1154 5 3 3 -1 36 -8 73 -38 201 -56 543 -43 794 56 1090 559 1825 1450 2122 220 74 351 97 586 103 267 7 427 -10 671 -71 378 -96 819 -310 1221 -591 l134 -94 26 19 c14 11 37 29 51 40 l25 21 -80 75 c-44 42 -145 129 -225 193 -764 617 -1565 989 -2320 1076 -146 16 -457 18 -599 4z" fill="#f21341"/>
<path d="M4966 3168 c-3 -13 -6 -53 -6 -89 l0 -65 113 -13 c61 -6 124 -14 138 -17 21 -5 27 -1 32 18 9 33 9 158 0 158 -5 0 -53 7 -108 15 -142 21 -161 20 -169 -7z" fill="#f21341"/>
<path d="M4185 3091 c-142 -50 -157 -58 -150 -80 3 -11 18 -56 33 -100 l27 -81 52 24 c28 14 80 34 115 47 35 12 67 26 72 31 12 10 -43 188 -58 188 -6 -1 -47 -14 -91 -29z" fill="#f21341"/>
<path d="M1281 3005 c-55 -58 -101 -109 -100 -113 0 -4 49 -48 108 -98 l108 -92 94 111 c52 61 95 114 97 117 2 6 -192 180 -201 180 -2 0 -50 -47 -106 -105z" fill="#f21341"/>
<path d="M3414 2613 c-31 -32 -69 -74 -84 -94 l-29 -35 67 -102 c37 -56 69 -102 72 -102 3 0 17 17 31 38 15 20 52 65 83 100 l56 63 -35 55 c-71 111 -88 134 -97 134 -5 0 -34 -26 -64 -57z" fill="#f21341"/>
<path d="M3960 1260 l0 -1040 280 0 280 0 2 246 3 246 235 -245 235 -246 415 0 414 -1 -189 193 c-105 105 -250 253 -322 327 l-132 135 55 12 c147 34 297 153 367 293 61 123 80 211 81 385 0 112 -4 168 -17 220 -61 243 -234 415 -491 489 l-88 26 -564 0 -564 0 0 -1040z m1054 479 c54 -49 76 -107 76 -197 0 -92 -17 -139 -70 -194 l-46 -48 -227 0 -227 0 0 240 0 240 225 0 225 0 44 -41z" fill="#f21341"/>
<path d="M6351 2264 c-136 -37 -252 -137 -320 -276 -72 -144 -71 -130 -71 -995 l0 -773 285 0 285 0 0 180 0 180 270 0 270 0 0 -180 0 -180 275 0 275 0 0 778 c-1 850 -2 880 -58 991 -16 32 -44 77 -62 100 -44 54 -147 123 -235 158 l-70 28 -395 2 c-322 2 -405 0 -449 -13z m633 -488 c18 -7 42 -26 54 -41 21 -27 22 -36 22 -296 l0 -269 -265 0 -265 0 0 269 0 269 26 31 c14 17 40 35 57 40 53 15 332 13 371 -3z" fill="#f21341"/>
<path d="M7880 1250 l0 -1030 295 0 295 0 0 1030 0 1030 -295 0 -295 0 0 -1030z" fill="#f21341"/>
<path d="M8710 1250 l0 -1030 695 0 695 0 0 265 0 265 -400 0 -400 0 0 765 0 765 -295 0 -295 0 0 -1030z" fill="#f21341"/>
<path d="M10650 2254 c-183 -62 -319 -204 -365 -379 -21 -81 -21 -388 0 -468 21 -82 56 -146 117 -212 69 -76 152 -129 250 -160 76 -24 89 -25 344 -25 l264 0 0 -130 0 -130 -223 0 c-123 0 -339 -3 -480 -7 l-257 -6 0 -259 0 -258 508 0 c425 0 517 3 567 15 201 53 355 205 400 397 20 87 20 380 0 467 -43 180 -184 326 -375 387 -46 14 -104 18 -342 22 l-288 4 0 119 0 119 473 2 472 3 3 263 2 262 -497 0 -498 -1 -75 -25z" fill="#f21341"/>
<path d="M2942 1792 c-12 -37 -31 -107 -43 -155 -19 -76 -20 -90 -8 -102 26 -25 214 -173 217 -171 1 2 11 57 22 122 11 65 24 137 30 159 5 22 10 43 10 47 0 7 -167 144 -197 161 -7 5 -18 -16 -31 -61z" fill="#f21341"/>
<path d="M349 1673 c-42 -92 -109 -259 -109 -270 0 -10 320 -127 327 -119 6 6 132 300 140 327 3 12 -29 28 -154 72 -87 32 -162 57 -166 57 -4 0 -22 -30 -38 -67z" fill="#f21341"/>
<path d="M2835 753 c23 -249 28 -302 34 -312 9 -14 335 -131 339 -121 1 4 -8 63 -22 131 -13 68 -27 149 -31 179 l-7 56 -151 54 c-82 30 -154 56 -158 58 -5 2 -6 -18 -4 -45z" fill="#f21341"/>
</g>
</svg>