<svg class="img-fluid" id="outputsvg" xmlns="http://www.w3.org/2000/svg" style="transform: matrix(1.11388, 0, 0, 1.11388, 0, 0); transform-origin: 50% 50%; cursor: move; max-height: 319.84px; transition: transform 200ms ease-in-out 0s;" width="2400" height="1350" viewBox="0 0 24000 13500"><g id="l7ecfqyMdUb1gucjRbuPhkF" fill="rgb(242,19,65)" style="transform: none;"><g><path id="ptxVuyQY9" d="M11755 10534 c-30 -8 -91 -13 -155 -12 -72 0 -122 -4 -159 -16 -30 -9 -70 -16 -89 -16 -19 0 -69 -9 -111 -19 -42 -11 -112 -27 -156 -36 -44 -9 -93 -23 -110 -31 -16 -8 -45 -17 -63 -20 -18 -4 -35 -11 -38 -15 -3 -5 -15 -9 -27 -9 -29 -1 -278 -86 -286 -99 -3 -5 -20 -13 -36 -17 -28 -6 -156 -62 -197 -84 -10 -6 -28 -15 -40 -22 -13 -6 -30 -15 -38 -20 -8 -5 -38 -19 -67 -33 -28 -13 -54 -29 -58 -35 -4 -6 -13 -9 -21 -6 -7 3 -17 -1 -22 -10 -8 -14 -46 -38 -112 -72 -19 -9 -41 -25 -48 -34 -7 -10 -20 -18 -28 -18 -8 0 -14 -4 -14 -8 0 -5 -12 -14 -26 -20 -14 -7 -56 -37 -94 -67 -38 -30 -73 -55 -77 -55 -5 0 -20 -12 -34 -27 -14 -16 -38 -37 -54 -48 -30 -21 -95 -75 -131 -110 -142 -136 -194 -189 -194 -196 0 -5 -4 -9 -10 -9 -9 0 -89 -81 -120 -122 -8 -11 -30 -36 -48 -55 -17 -20 -32 -41 -32 -47 0 -7 -18 -30 -41 -51 -22 -22 -54 -61 -71 -87 -16 -27 -34 -48 -38 -48 -8 0 -15 -11 -56 -87 -10 -18 -23 -33 -30 -33 -7 0 -16 -14 -19 -31 -4 -18 -22 -52 -41 -76 -18 -24 -41 -60 -51 -81 -9 -20 -29 -57 -44 -82 -14 -25 -29 -57 -33 -72 -3 -16 -13 -28 -21 -28 -8 0 -15 -6 -15 -12 0 -15 -40 -115 -55 -138 -14 -22 -55 -122 -61 -147 -5 -25 -18 -56 -39 -93 -8 -14 -15 -35 -15 -46 0 -12 -7 -27 -15 -34 -8 -7 -15 -20 -15 -29 0 -9 -9 -40 -20 -69 -11 -29 -20 -62 -20 -75 0 -12 -7 -31 -15 -41 -8 -11 -15 -39 -15 -63 0 -24 -4 -43 -9 -43 -14 0 -31 -59 -31 -110 0 -26 -3 -50 -7 -54 -4 -3 -8 -14 -9 -24 -10 -83 -25 -176 -33 -213 -6 -25 -12 -110 -15 -189 -3 -80 -12 -176 -21 -215 -11 -52 -13 -99 -9 -185 4 -63 10 -119 14 -125 4 -5 11 -77 15 -160 3 -82 13 -178 21 -213 8 -35 14 -81 14 -102 0 -21 5 -51 12 -67 6 -15 14 -61 18 -101 5 -51 12 -76 24 -85 12 -9 17 -27 18 -64 0 -32 5 -53 12 -56 7 -3 16 -27 20 -53 3 -26 10 -52 15 -58 4 -6 13 -29 19 -51 20 -74 48 -146 59 -153 6 -4 14 -23 18 -42 8 -39 42 -125 85 -215 16 -33 34 -73 39 -88 6 -16 15 -26 19 -23 5 3 14 -17 21 -45 7 -27 17 -47 21 -44 5 3 13 -10 19 -28 6 -18 27 -56 46 -86 19 -29 35 -56 35 -60 0 -4 9 -16 20 -26 11 -10 20 -27 20 -37 0 -11 15 -34 32 -51 18 -18 31 -35 30 -40 -1 -4 23 -40 53 -81 30 -40 55 -80 55 -89 0 -10 4 -16 9 -14 10 2 85 -81 94 -105 3 -10 13 -18 22 -18 8 0 15 -7 15 -15 0 -20 113 -137 368 -383 30 -29 66 -61 81 -70 14 -9 33 -22 41 -29 8 -7 36 -30 61 -50 26 -21 57 -46 69 -56 12 -11 59 -44 104 -74 44 -30 85 -61 89 -69 4 -8 17 -14 27 -14 11 0 20 -4 20 -9 0 -5 12 -14 28 -20 15 -6 41 -20 57 -30 84 -55 257 -141 283 -141 7 0 10 -5 7 -10 -3 -6 2 -13 12 -16 10 -4 41 -17 68 -29 116 -53 168 -75 179 -75 6 0 24 -7 40 -15 15 -8 85 -33 155 -56 69 -22 144 -47 166 -54 22 -8 58 -17 80 -21 22 -4 45 -10 50 -14 6 -4 38 -10 72 -13 34 -3 72 -12 85 -21 14 -10 43 -16 79 -16 31 0 89 -9 130 -19 45 -11 92 -17 119 -14 25 3 99 -2 165 -11 152 -20 359 -21 462 -1 47 10 122 15 190 14 89 -2 117 1 137 14 18 12 48 17 107 17 66 0 86 4 106 20 20 15 41 20 88 20 43 0 66 5 75 15 7 8 29 15 49 15 20 1 47 7 61 15 14 8 39 14 55 15 17 0 40 7 51 15 12 8 43 19 70 25 27 6 76 24 108 41 33 16 74 29 93 29 18 0 33 5 33 10 0 6 8 13 18 17 9 3 42 16 72 29 30 12 74 30 97 40 23 10 40 21 37 26 -3 4 1 8 8 8 20 1 128 52 175 84 23 15 49 26 57 23 9 -4 17 2 21 14 4 10 13 19 21 19 8 0 35 15 60 34 25 19 52 32 59 29 9 -3 19 5 26 21 8 16 32 36 63 50 28 14 57 34 64 45 7 12 21 21 31 21 11 0 21 4 23 9 4 11 167 141 176 141 4 0 39 32 77 71 39 39 76 76 83 82 15 15 124 123 137 137 6 6 42 41 80 78 39 38 88 94 110 127 22 32 57 76 78 98 20 22 37 43 37 47 0 4 20 34 45 66 25 31 45 62 45 67 0 4 14 22 30 39 17 16 33 42 36 56 4 15 17 38 29 52 13 14 42 63 65 109 24 48 45 79 49 72 4 -6 13 11 20 39 7 28 18 53 25 58 7 4 21 30 30 57 10 28 33 82 51 120 38 80 51 117 60 162 4 19 13 33 21 33 8 0 14 10 14 23 0 12 11 45 25 72 13 28 25 62 25 78 0 15 4 27 10 27 5 0 7 6 4 14 -3 8 -1 17 5 21 6 3 11 22 11 41 0 20 6 37 14 40 9 3 14 23 14 61 0 44 4 58 21 70 17 12 21 25 21 77 0 39 5 69 15 82 9 12 14 44 15 90 0 40 7 87 15 107 11 27 15 76 15 185 0 123 3 152 15 162 9 7 13 20 10 29 -3 8 0 56 6 106 10 79 10 104 -5 181 -9 49 -21 157 -26 239 -5 83 -16 195 -25 250 -9 55 -18 110 -19 123 -2 12 -6 25 -9 29 -4 3 -7 28 -7 55 0 29 -8 65 -20 88 -11 22 -20 51 -20 65 0 14 -6 38 -13 53 -8 15 -24 68 -37 117 -13 50 -29 97 -35 105 -7 8 -15 30 -19 49 -3 19 -12 42 -19 50 -8 9 -19 36 -27 61 -18 62 -51 142 -65 160 -7 8 -23 42 -35 75 -13 33 -29 65 -36 70 -6 6 -14 21 -19 35 -4 14 -13 34 -19 45 -7 11 -28 47 -46 80 -18 33 -48 83 -66 110 -18 28 -36 62 -39 78 -4 15 -13 27 -19 27 -7 0 -20 15 -30 33 -41 76 -48 87 -56 87 -4 0 -24 24 -43 53 -20 30 -44 60 -53 68 -10 8 -30 32 -46 54 -45 64 -68 91 -153 180 -44 47 -84 89 -90 95 -56 61 -240 232 -275 255 -24 17 -58 45 -75 63 -18 17 -36 32 -42 32 -5 0 -18 9 -28 20 -10 11 -22 20 -26 20 -4 0 -23 14 -41 31 -18 17 -48 37 -65 45 -18 8 -33 19 -33 24 0 6 -6 10 -14 10 -8 0 -21 8 -28 18 -7 9 -44 33 -82 52 -37 19 -74 43 -81 52 -6 10 -15 15 -18 12 -3 -4 -18 3 -33 15 -15 11 -35 21 -45 21 -9 0 -30 10 -46 23 -25 19 -96 55 -254 126 -25 12 -53 21 -62 21 -9 0 -20 6 -24 13 -9 14 -249 97 -282 97 -11 0 -21 4 -21 9 0 5 -19 11 -42 15 -23 4 -50 14 -60 23 -11 10 -30 14 -51 11 -22 -2 -33 0 -31 7 3 6 -3 11 -13 11 -39 2 -160 26 -201 40 -23 7 -60 14 -81 14 -20 0 -62 8 -92 17 -40 12 -88 16 -184 15 -74 -1 -122 2 -110 7 35 14 -49 21 -260 20 -139 -1 -215 -5 -250 -15z m-870 -1033 c6 -6 39 -14 74 -20 36 -6 69 -15 75 -21 5 -5 19 -10 29 -10 11 0 38 -9 61 -19 23 -11 48 -22 56 -25 8 -3 22 -10 30 -15 8 -5 43 -23 77 -39 34 -17 75 -40 89 -51 15 -12 38 -24 51 -27 12 -4 23 -12 23 -18 0 -7 18 -22 40 -35 22 -12 57 -38 77 -58 21 -19 46 -39 55 -44 10 -5 18 -16 18 -24 0 -8 4 -15 10 -15 10 0 150 -137 150 -147 0 -3 10 -16 23 -29 12 -13 32 -33 45 -46 12 -13 22 -31 22 -40 0 -8 9 -18 20 -21 11 -3 20 -12 20 -21 0 -9 4 -16 8 -16 5 0 14 -12 20 -26 7 -14 16 -23 21 -20 5 3 12 -5 15 -18 3 -13 15 -35 26 -48 33 -38 100 -148 100 -163 0 -8 6 -12 14 -9 9 4 15 -7 20 -35 3 -22 14 -48 25 -58 18 -18 60 -104 115 -233 15 -36 34 -78 42 -95 22 -49 45 -117 57 -167 6 -27 17 -48 24 -48 7 0 13 -10 13 -22 0 -41 20 -99 32 -92 7 5 9 -4 6 -27 -3 -20 2 -49 13 -74 10 -22 19 -54 19 -72 0 -17 5 -33 12 -35 6 -2 12 -13 13 -24 6 -73 18 -134 26 -134 5 0 9 -15 9 -32 0 -18 7 -58 15 -88 8 -30 15 -75 15 -100 0 -64 9 -93 25 -80 9 8 14 -11 19 -82 4 -51 11 -97 15 -103 5 -5 12 -41 16 -80 4 -38 10 -74 14 -80 3 -5 11 -50 18 -100 24 -183 35 -209 86 -194 45 13 349 11 384 -2 15 -6 66 -15 112 -19 46 -5 89 -14 95 -20 5 -5 17 -10 26 -10 9 0 49 -16 89 -35 39 -19 78 -35 86 -35 7 0 16 -4 20 -9 3 -5 30 -22 60 -37 30 -16 55 -34 55 -41 0 -8 8 -17 18 -20 9 -4 32 -23 49 -42 18 -20 43 -47 56 -61 12 -14 29 -38 37 -55 8 -16 21 -38 29 -48 30 -37 27 -277 -5 -277 -8 0 -14 -8 -14 -18 0 -28 -44 -80 -94 -113 -65 -41 -149 -41 -227 -1 -69 36 -101 68 -133 136 -31 66 -32 94 -5 140 11 19 18 40 15 45 -4 6 3 15 14 21 11 6 19 14 19 18 -3 17 2 31 21 52 27 31 27 86 0 95 -11 3 -20 13 -20 21 0 8 -7 14 -15 14 -8 0 -15 4 -15 9 0 13 -120 70 -135 65 -6 -3 -18 2 -25 11 -9 11 -31 15 -79 15 -40 0 -72 5 -80 13 -15 15 -243 15 -282 -1 -19 -7 -30 -7 -37 0 -8 8 -14 3 -23 -18 -8 -23 -7 -38 5 -74 9 -25 16 -67 16 -95 0 -27 7 -72 15 -99 8 -27 15 -73 15 -101 0 -37 6 -60 20 -78 11 -14 19 -29 18 -34 -4 -15 13 -127 21 -137 5 -6 11 -33 15 -61 8 -59 11 -75 19 -95 3 -8 8 -34 10 -57 3 -23 15 -57 28 -74 13 -18 17 -29 10 -25 -17 11 -4 -52 14 -71 8 -7 16 -27 20 -45 7 -36 12 -51 44 -121 11 -26 21 -55 21 -64 0 -9 11 -30 24 -47 13 -17 26 -41 30 -53 4 -11 13 -27 21 -33 8 -7 15 -21 15 -31 0 -16 75 -106 131 -156 9 -9 29 -26 44 -40 15 -13 43 -33 63 -43 19 -11 38 -23 41 -28 10 -15 235 -53 272 -46 77 14 129 53 129 99 0 12 -5 26 -12 33 -7 7 -17 27 -22 44 -6 18 -15 31 -20 28 -17 -10 -46 94 -46 168 0 90 14 125 77 189 71 72 98 83 213 83 116 0 169 -19 229 -81 71 -74 101 -156 101 -276 0 -75 -4 -91 -35 -157 -39 -83 -117 -163 -195 -200 -25 -11 -49 -27 -53 -33 -4 -7 -18 -13 -31 -13 -13 0 -36 -7 -53 -15 -17 -8 -50 -16 -74 -16 -24 -1 -54 -8 -66 -15 -32 -20 -260 -19 -299 1 -16 8 -49 15 -74 15 -25 1 -56 7 -70 15 -14 8 -34 14 -45 15 -12 0 -38 9 -60 20 -22 11 -46 20 -55 20 -8 0 -30 9 -48 20 -18 11 -41 22 -50 24 -30 6 -68 25 -52 26 8 0 -6 12 -31 25 -25 13 -51 31 -58 39 -8 9 -19 16 -25 16 -21 0 -196 161 -196 180 0 5 -7 7 -15 4 -9 -4 -15 0 -15 9 0 9 -6 20 -13 24 -20 12 -157 166 -157 177 0 5 -16 26 -35 47 -19 22 -35 44 -35 49 0 6 -6 10 -13 10 -7 0 -19 17 -26 37 -8 21 -17 40 -21 43 -15 10 -70 108 -70 123 0 9 -9 21 -20 27 -11 6 -20 18 -20 28 0 9 -7 26 -15 36 -8 11 -15 28 -15 38 0 9 -9 22 -20 28 -11 6 -20 17 -20 25 0 8 -27 74 -61 146 -33 73 -63 146 -66 163 -3 17 -14 42 -25 55 -10 13 -18 33 -18 45 0 12 -6 31 -14 42 -14 19 -15 19 -52 -1 -20 -11 -41 -30 -47 -42 -6 -13 -15 -23 -21 -23 -5 0 -28 -19 -51 -43 -22 -24 -74 -72 -115 -106 -41 -35 -79 -68 -85 -75 -18 -20 -171 -116 -185 -116 -6 0 -13 -7 -16 -15 -4 -8 -14 -15 -24 -15 -10 0 -25 -7 -33 -15 -8 -8 -34 -19 -57 -24 -24 -5 -46 -14 -49 -19 -3 -5 -22 -12 -41 -14 -19 -3 -48 -10 -65 -16 -44 -16 -200 -37 -270 -37 -100 1 -265 27 -265 42 0 7 -12 13 -27 13 -16 1 -39 7 -53 15 -14 8 -36 14 -50 15 -14 0 -33 9 -43 20 -9 11 -23 20 -30 20 -7 0 -31 13 -53 30 -21 16 -42 30 -46 30 -12 0 -138 120 -138 131 0 4 -9 11 -20 14 -11 3 -20 12 -20 19 0 8 -7 19 -15 26 -8 7 -28 38 -44 69 -15 31 -38 73 -50 95 -12 21 -20 44 -17 51 2 7 -3 23 -12 36 -14 20 -17 52 -17 212 0 168 2 190 18 201 9 7 17 23 17 35 0 12 9 39 20 61 11 22 20 46 20 54 0 8 4 16 8 18 4 2 18 23 31 48 43 86 53 101 99 151 26 28 51 57 55 65 4 8 15 14 22 14 8 0 15 5 15 11 0 6 12 23 28 38 15 15 54 58 87 95 33 37 74 83 91 101 16 19 39 51 50 72 10 21 24 41 30 45 7 5 11 42 10 105 -2 90 -5 102 -35 155 -58 103 -126 156 -249 192 -90 27 -165 30 -226 9 -21 -7 -49 -13 -62 -13 -13 0 -27 -6 -31 -13 -4 -8 -30 -27 -58 -42 -81 -46 -104 -73 -105 -121 0 -49 23 -109 45 -117 8 -4 15 -13 15 -22 0 -9 10 -35 22 -58 15 -30 22 -67 26 -132 4 -86 3 -94 -26 -151 -17 -33 -37 -66 -46 -73 -9 -7 -14 -17 -11 -21 3 -5 -11 -14 -30 -21 -19 -7 -35 -19 -35 -25 0 -7 -15 -15 -32 -19 -18 -4 -53 -14 -78 -23 -42 -14 -50 -14 -105 3 -102 31 -149 73 -196 173 -25 56 -29 75 -29 153 0 57 5 103 15 126 8 19 15 48 15 63 0 15 6 33 14 39 8 6 20 26 27 44 7 18 30 53 51 78 21 26 38 51 38 55 0 14 112 101 195 151 85 52 258 123 299 123 12 0 33 8 46 18 22 15 53 17 285 17 258 0 315 -5 285 -26 -11 -7 -6 -8 17 -4 22 4 37 2 47 -7 7 -8 33 -20 57 -28 24 -7 58 -24 76 -37 17 -13 42 -28 55 -33 41 -19 67 -36 92 -61 13 -13 42 -37 63 -54 39 -29 93 -97 93 -115 0 -6 6 -10 14 -10 7 0 25 -27 40 -60 15 -32 31 -62 35 -64 5 -3 11 -23 15 -45 3 -22 13 -44 22 -49 14 -8 16 -34 16 -187 1 -144 -2 -180 -14 -189 -8 -6 -20 -32 -28 -59 -7 -26 -16 -50 -21 -52 -4 -3 -19 -30 -34 -60 -14 -30 -30 -55 -35 -55 -6 0 -10 -6 -10 -14 0 -14 -109 -161 -149 -202 -12 -12 -21 -25 -21 -29 0 -4 -34 -41 -76 -81 -42 -41 -70 -74 -63 -75 8 0 4 -4 -8 -9 -13 -5 -23 -16 -23 -25 0 -8 -6 -15 -12 -15 -15 -1 -73 -76 -107 -139 -21 -40 -23 -54 -19 -147 2 -74 8 -107 19 -121 9 -10 19 -26 22 -35 4 -10 11 -18 17 -18 5 0 10 -6 10 -13 0 -24 93 -101 145 -120 53 -20 231 -32 250 -16 6 4 40 13 77 18 71 12 224 84 313 148 49 35 165 133 216 183 14 14 67 61 118 104 l93 80 -7 50 c-3 28 -10 53 -16 54 -5 2 -9 19 -9 38 0 19 -7 51 -15 71 -8 19 -15 50 -15 67 0 17 -8 45 -17 61 -9 17 -19 58 -23 93 -5 37 -15 71 -25 82 -14 15 -16 30 -12 65 4 27 3 44 -2 40 -13 -7 -19 16 -27 105 -4 41 -11 84 -17 95 -10 20 -24 87 -51 245 -8 47 -19 108 -25 135 -5 28 -13 80 -16 118 -4 37 -10 67 -14 67 -5 0 -11 28 -13 63 -3 35 -11 74 -19 88 -7 13 -15 49 -17 79 -2 30 -10 69 -17 85 -7 17 -16 50 -19 75 -3 25 -8 52 -9 60 -8 34 -18 78 -29 125 -6 28 -13 55 -17 60 -3 6 -11 35 -16 65 -7 37 -15 54 -24 52 -10 -2 -12 5 -7 29 5 28 -9 87 -44 174 -4 11 -18 49 -30 85 -12 36 -26 74 -30 85 -4 11 -14 36 -21 55 -6 19 -17 40 -24 45 -7 6 -18 28 -25 50 -7 22 -21 51 -30 65 -9 14 -31 47 -48 73 -18 26 -32 50 -32 53 0 4 -13 22 -30 41 -16 18 -30 38 -30 43 0 6 -7 10 -15 10 -8 0 -15 4 -15 8 0 13 -132 142 -145 142 -7 0 -18 7 -26 16 -16 20 -68 46 -148 74 -117 41 -211 14 -211 -60 0 -28 42 -90 61 -90 27 0 89 -59 106 -100 28 -70 20 -241 -14 -279 -66 -75 -101 -105 -154 -131 -54 -28 -73 -32 -152 -34 -78 -2 -96 1 -131 20 -23 13 -56 30 -75 39 -39 19 -141 119 -141 139 0 7 -10 26 -22 42 -20 25 -23 42 -26 149 -4 128 -3 132 52 229 41 72 90 125 147 159 145 86 220 105 434 106 89 1 165 -3 170 -8z"/></g></g></svg>